<?xml version="1.0" standalone="no"?>
<!DOCTYPE svg PUBLIC "-//W3C//DTD SVG 20010904//EN"
 "http://www.w3.org/TR/2001/REC-SVG-20010904/DTD/svg10.dtd">
<svg version="1.0" xmlns="http://www.w3.org/2000/svg"
 width="1305.000000pt" height="304.000000pt" viewBox="0 0 1305.000000 304.000000"
 preserveAspectRatio="xMidYMid meet">

<g transform="translate(0.000000,304.000000) scale(0.100000,-0.100000)"
fill="#000000" stroke="none">
<path d="M1990 1505 l0 -1505 45 0 45 0 0 1505 0 1505 -45 0 -45 0 0 -1505z"/>
<path d="M5100 1505 l0 -1505 120 0 120 0 0 1505 0 1505 -120 0 -120 0 0
-1505z"/>
<path d="M8360 1505 l0 -1505 300 0 300 0 0 1505 0 1505 -300 0 -300 0 0
-1505z"/>
<path d="M11980 1505 l0 -1505 500 0 500 0 0 1505 0 1505 -500 0 -500 0 0
-1505z"/>
<path d="M10305 1996 c-116 -29 -218 -101 -271 -191 -55 -94 -67 -150 -68
-300 0 -120 3 -149 22 -203 72 -205 228 -304 477 -305 170 -1 282 39 376 132
94 95 130 199 130 376 0 68 -6 132 -16 169 -45 168 -154 277 -322 321 -69 18
-256 19 -328 1z m231 -181 c101 -30 145 -112 152 -283 8 -190 -38 -297 -143
-338 -61 -23 -143 -14 -196 20 -75 50 -118 187 -105 338 13 156 63 238 164
268 41 13 74 11 128 -5z"/>
<path d="M60 1499 l0 -491 293 5 c319 5 353 10 437 66 25 17 56 47 70 67 22
33 25 48 25 129 0 84 -3 96 -26 129 -36 51 -84 84 -148 103 l-54 15 51 17 c68
23 116 62 141 114 61 126 -13 270 -164 316 -61 19 -93 21 -346 21 l-279 0 0
-491z m464 301 c46 -17 66 -46 66 -95 0 -80 -46 -105 -192 -105 l-68 0 0 105
0 105 84 0 c47 0 96 -4 110 -10z m34 -400 c59 -36 70 -110 23 -162 l-29 -33
-111 -3 -111 -4 0 111 0 111 98 0 c79 0 103 -4 130 -20z"/>
<path d="M3170 1501 l0 -491 130 0 130 0 2 188 3 187 77 3 c136 5 169 -23 182
-158 4 -36 12 -100 18 -142 l10 -78 145 0 145 0 -5 27 c-3 16 -13 75 -22 133
-28 178 -35 208 -58 241 -33 48 -67 69 -125 76 -60 7 -58 14 11 31 140 35 213
159 173 294 -20 68 -68 115 -152 149 -57 23 -71 24 -361 27 l-303 3 0 -490z
m485 288 c17 -8 38 -31 48 -52 17 -33 17 -42 5 -80 -19 -61 -56 -77 -180 -77
l-98 0 0 108 c0 60 3 112 8 116 12 13 185 1 217 -15z"/>
<path d="M6380 1500 l0 -490 120 0 120 0 2 377 3 377 166 -374 165 -375 187
-3 187 -2 0 490 0 490 -120 0 -120 0 0 -362 c0 -199 -4 -358 -8 -352 -5 5 -80
168 -167 362 l-158 352 -188 0 -189 0 0 -490z"/>
</g>
</svg>
