<?xml version="1.0" standalone="no"?>
<!DOCTYPE svg PUBLIC "-//W3C//DTD SVG 20010904//EN"
 "http://www.w3.org/TR/2001/REC-SVG-20010904/DTD/svg10.dtd">
<svg version="1.0" xmlns="http://www.w3.org/2000/svg"
 width="1305.000000pt" height="304.000000pt" viewBox="0 0 1305.000000 304.000000"
 preserveAspectRatio="xMidYMid meet">

<g transform="translate(0.000000,304.000000) scale(0.100000,-0.100000)"
fill="#000000" stroke="none">
<path d="M1980 1505 l0 -1505 50 0 50 0 0 1505 0 1505 -50 0 -50 0 0 -1505z"/>
<path d="M5100 1505 l0 -1505 125 0 125 0 0 1505 0 1505 -125 0 -125 0 0
-1505z"/>
<path d="M8360 1505 l0 -1505 300 0 300 0 0 1505 0 1505 -300 0 -300 0 0
-1505z"/>
<path d="M11970 1505 l0 -1505 505 0 505 0 0 1505 0 1505 -505 0 -505 0 0
-1505z"/>
<path d="M10365 2010 c-218 -31 -356 -163 -397 -380 -16 -83 -4 -263 22 -337
72 -208 268 -319 526 -299 283 21 440 180 459 463 8 106 -12 227 -49 308 -31
68 -110 153 -174 188 -94 51 -259 75 -387 57z m207 -213 c21 -11 49 -37 62
-56 72 -104 74 -355 5 -468 -28 -45 -69 -72 -131 -85 -74 -15 -131 2 -184 56
-55 55 -77 127 -77 256 0 146 38 250 107 296 55 35 154 36 218 1z"/>
<path d="M60 1505 l0 -497 298 4 c275 4 302 6 358 27 120 43 178 122 178 241
-1 103 -47 173 -139 211 -91 38 -91 38 -72 38 24 1 97 38 125 65 96 87 77 261
-36 336 -87 57 -120 63 -429 68 l-283 4 0 -497z m452 295 c78 -22 103 -106 49
-161 -29 -28 -32 -29 -130 -29 l-101 0 0 93 c0 52 3 97 7 100 10 11 134 8 175
-3z m33 -394 c61 -26 84 -109 44 -159 -27 -36 -79 -49 -174 -45 l-80 3 -3 94
c-1 52 -1 100 2 108 7 18 165 18 211 -1z"/>
<path d="M3167 1993 c-4 -3 -7 -226 -7 -495 l0 -488 140 0 140 0 0 190 0 190
68 0 c86 0 138 -15 157 -44 9 -13 22 -76 30 -145 8 -66 17 -136 21 -156 l6
-35 150 0 c139 0 150 1 143 18 -8 20 -29 132 -49 259 -21 138 -56 183 -159
202 -23 5 -35 10 -27 13 8 3 37 14 64 23 134 48 194 196 131 322 -42 83 -118
124 -268 143 -90 11 -530 14 -540 3z m494 -208 c36 -19 49 -43 49 -92 0 -81
-53 -113 -185 -113 l-85 0 0 116 0 117 96 -7 c53 -4 109 -13 125 -21z"/>
<path d="M6377 1993 c-4 -3 -7 -226 -7 -495 l0 -488 125 0 125 0 2 374 3 375
165 -375 165 -374 188 0 187 0 0 495 0 495 -120 0 -120 0 -2 -367 -3 -367
-165 367 -165 367 -186 0 c-102 0 -189 -3 -192 -7z"/>
</g>
</svg>
